<svg xmlns="http://www.w3.org/2000/svg" xmlns:svg="http://www.w3.org/2000/svg" id="Capa_1" width="480" height="480" x="0" y="0" version="1.1" viewBox="0 0 480 480" xml:space="preserve"><metadata id="metadata47"/><path id="path2" d="m 232.419,191.328 c 2.418,2.548 5.663,3.951 9.134,3.951 3.471,0 6.716,-1.403 9.134,-3.951 l 52.122,-54.912 c 3.923,-4.133 6.881,-11.547 6.881,-17.245 V 17.893 c 0,-7.168 -5.832,-12.9999996 -13,-12.9999996 H 186.417 c -7.168,0 -13,5.8319996 -13,12.9999996 V 119.17 c 0,5.698 2.958,13.112 6.881,17.245 z m 9.135,-165.276 c 20.086,0 36.369,16.283 36.369,36.369 0,20.086 -16.283,36.369 -36.369,36.369 -20.086,0 -36.369,-16.283 -36.369,-36.369 0,-20.086 16.282,-36.369 36.369,-36.369 z" style="fill:none;stroke:gray;stroke-width:10;stroke-miterlimit:4;stroke-dasharray:none;stroke-opacity:1;fill-opacity:1"/><path id="path4" d="m 250.687,289.565 c -2.418,-2.548 -5.662,-3.95 -9.133,-3.95 -3.471,0 -6.715,1.402 -9.134,3.95 l -52.122,54.913 c -3.923,4.133 -6.881,11.547 -6.881,17.245 V 463 c 0,7.168 5.832,13 13,13 H 296.69 c 7.168,0 13,-5.832 13,-13 V 361.723 c 0,-5.698 -2.958,-13.112 -6.881,-17.245 z m -9.133,165.276 c -20.086,0 -36.369,-16.283 -36.369,-36.369 0,-20.086 16.283,-36.369 36.369,-36.369 20.086,0 36.369,16.283 36.369,36.369 0,20.086 -16.283,36.369 -36.369,36.369 z" style="fill:none;fill-opacity:1;stroke:gray;stroke-width:10;stroke-miterlimit:4;stroke-dasharray:none;stroke-opacity:1"/><path id="path6" d="M 464.107,172.31001 H 362.83 c -5.699,0 -13.112,2.958 -17.244,6.881 l -54.914,52.122 c -2.548,2.418 -3.951,5.662 -3.951,9.134 0,3.472 1.403,6.716 3.951,9.135 l 54.913,52.12 c 4.132,3.924 11.546,6.882 17.245,6.882 h 101.277 c 7.168,0 13,-5.832 13,-13 v -110.274 c 0,-7.168 -5.832,-13 -13,-13 z m -44.528,104.506 c -20.086,0 -36.369,-16.283 -36.369,-36.369 0,-20.086 16.283,-36.369 36.369,-36.369 20.086,0 36.369,16.283 36.369,36.369 0,20.086 -16.283,36.369 -36.369,36.369 z" style="fill:none;stroke:gray;stroke-width:10;stroke-miterlimit:4;stroke-dasharray:none;stroke-opacity:1;fill-opacity:1"/><path id="path8" d="m 196.386,240.44701 c 0,-3.472 -1.403,-6.716 -3.951,-9.135 l -54.913,-52.12 c -4.132,-3.924 -11.546,-6.882 -17.245,-6.882 H 19 c -7.168,0 -13,5.832 -13,13 v 110.273 c 0,7.168 5.832,13 13,13 h 101.277 c 5.699,0 13.112,-2.958 17.244,-6.881 l 54.914,-52.122 c 2.548,-2.417 3.951,-5.662 3.951,-9.133 z m -132.858,36.369 c -20.086,0 -36.369,-16.283 -36.369,-36.369 0,-20.086 16.283,-36.369 36.369,-36.369 20.086,0 36.369,16.283 36.369,36.369 10e-4,20.086 -16.282,36.369 -36.369,36.369 z" style="fill:none;stroke:gray;stroke-width:10;stroke-miterlimit:4;stroke-dasharray:none;stroke-opacity:1;fill-opacity:1"/><ellipse style="opacity:1;fill:none;fill-opacity:1;fill-rule:evenodd;stroke:#000;stroke-width:9;stroke-linecap:round;stroke-linejoin:round;stroke-miterlimit:4;stroke-dasharray:none;stroke-dashoffset:0;stroke-opacity:1;paint-order:markers fill stroke" id="path4599-2" cx="242.026" cy="240.731" rx="38.338" ry="37.803"/></svg>