<svg xmlns="http://www.w3.org/2000/svg" xmlns:svg="http://www.w3.org/2000/svg" id="Capa_1" x="0" y="0" version="1.1" viewBox="0 0 60 60" xml:space="preserve" style="enable-background:new 0 0 60 60"><metadata id="metadata45"/><path id="path2" d="M 14,20 C 8.486,20 4,24.486 4,30 4,35.514 8.486,40 14,40 19.514,40 24,35.514 24,30 24,24.486 19.514,20 14,20 Z m 0,18 c -4.411,0 -8,-3.589 -8,-8 0,-4.411 3.589,-8 8,-8 4.411,0 8,3.589 8,8 0,4.411 -3.589,8 -8,8 z"/><path id="path4" d="M 46,16 H 14 C 6.28,16 0,22.28 0,30 0,37.72 6.28,44 14,44 H 46 C 53.72,44 60,37.72 60,30 60,22.28 53.72,16 46,16 Z m 0,26 H 14 C 7.383,42 2,36.617 2,30 2,23.383 7.383,18 14,18 h 32 c 6.617,0 12,5.383 12,12 0,6.617 -5.383,12 -12,12 z"/></svg>